<mxfile host="app.diagrams.net" agent="Mozilla/5.0 (X11; Linux x86_64) AppleWebKit/537.36 (KHTML, like Gecko) Chrome/130.0.0.0 Safari/537.36" version="24.8.6">
  <diagram name="Page-1" id="hvb2uJvaZoSMpO_LDYej">
    <mxGraphModel dx="2593" dy="1453" grid="1" gridSize="10" guides="1" tooltips="1" connect="1" arrows="1" fold="1" page="1" pageScale="1" pageWidth="827" pageHeight="1169" math="0" shadow="0">
      <root>
        <mxCell id="0" />
        <mxCell id="1" parent="0" />
        <mxCell id="RyqakxEzU9vs0X3KJX2c-2" value="&lt;div&gt;&lt;br&gt;&lt;/div&gt;&lt;div&gt;&lt;br&gt;&lt;/div&gt;&lt;div&gt;&lt;br&gt;&lt;/div&gt;&lt;div&gt;&lt;br&gt;&lt;/div&gt;&lt;div&gt;&lt;br&gt;&lt;/div&gt;&lt;div&gt;&lt;br&gt;&lt;/div&gt;&lt;div&gt;&lt;br&gt;&lt;/div&gt;" style="text;html=1;align=center;verticalAlign=middle;resizable=0;points=[];autosize=1;strokeColor=none;fillColor=none;" vertex="1" parent="1">
          <mxGeometry x="150" y="862" width="20" height="110" as="geometry" />
        </mxCell>
        <mxCell id="RyqakxEzU9vs0X3KJX2c-21" value="&lt;div style=&quot;text-wrap-mode: nowrap;&quot;&gt;&lt;div&gt;Generate/Edit/Delete Invoices&amp;nbsp;&lt;/div&gt;&lt;/div&gt;" style="ellipse;whiteSpace=wrap;html=1;" vertex="1" parent="1">
          <mxGeometry x="312" y="92" width="204" height="50" as="geometry" />
        </mxCell>
        <mxCell id="RyqakxEzU9vs0X3KJX2c-22" value="&lt;div style=&quot;text-wrap-mode: nowrap;&quot;&gt;&lt;div&gt;&lt;span style=&quot;background-color: initial;&quot;&gt;View / Filter / Sort / Search Invoices&lt;/span&gt;&lt;/div&gt;&lt;/div&gt;" style="ellipse;whiteSpace=wrap;html=1;" vertex="1" parent="1">
          <mxGeometry x="308" y="162" width="212" height="50" as="geometry" />
        </mxCell>
        <mxCell id="RyqakxEzU9vs0X3KJX2c-23" value="&lt;div style=&quot;text-wrap-mode: nowrap;&quot;&gt;&lt;div&gt;&lt;span style=&quot;background-color: initial;&quot;&gt;Download and Print Invoices&lt;/span&gt;&lt;/div&gt;&lt;/div&gt;" style="ellipse;whiteSpace=wrap;html=1;" vertex="1" parent="1">
          <mxGeometry x="308" y="232" width="212" height="50" as="geometry" />
        </mxCell>
        <mxCell id="RyqakxEzU9vs0X3KJX2c-26" value="&lt;div style=&quot;text-wrap-mode: nowrap;&quot;&gt;&lt;div&gt;&lt;span style=&quot;background-color: initial;&quot;&gt;View and update organisation info&lt;/span&gt;&lt;/div&gt;&lt;/div&gt;" style="ellipse;whiteSpace=wrap;html=1;" vertex="1" parent="1">
          <mxGeometry x="308" y="1142" width="212" height="50" as="geometry" />
        </mxCell>
        <mxCell id="RyqakxEzU9vs0X3KJX2c-27" value="&lt;div style=&quot;text-wrap-mode: nowrap;&quot;&gt;&lt;div&gt;&lt;span style=&quot;background-color: initial;&quot;&gt;Add / Manage&amp;nbsp;&lt;/span&gt;&lt;span style=&quot;background-color: initial;&quot;&gt;USER&lt;/span&gt;&lt;/div&gt;&lt;/div&gt;" style="ellipse;whiteSpace=wrap;html=1;" vertex="1" parent="1">
          <mxGeometry x="308" y="1072" width="212" height="50" as="geometry" />
        </mxCell>
        <mxCell id="RyqakxEzU9vs0X3KJX2c-28" value="&lt;div style=&quot;&quot;&gt;&lt;div style=&quot;&quot;&gt;&lt;span style=&quot;text-wrap-mode: nowrap;&quot;&gt;Add comments to invoice&lt;/span&gt;&lt;/div&gt;&lt;/div&gt;" style="ellipse;whiteSpace=wrap;html=1;" vertex="1" parent="1">
          <mxGeometry x="307" y="442" width="212" height="50" as="geometry" />
        </mxCell>
        <mxCell id="RyqakxEzU9vs0X3KJX2c-29" value="&lt;div style=&quot;text-wrap-mode: nowrap;&quot;&gt;&lt;div&gt;&lt;span style=&quot;background-color: initial;&quot;&gt;Manage Bank Details&lt;/span&gt;&lt;/div&gt;&lt;/div&gt;" style="ellipse;whiteSpace=wrap;html=1;" vertex="1" parent="1">
          <mxGeometry x="308" y="1002" width="212" height="50" as="geometry" />
        </mxCell>
        <mxCell id="RyqakxEzU9vs0X3KJX2c-30" value="&lt;div style=&quot;text-wrap-mode: nowrap;&quot;&gt;&lt;div&gt;&lt;span style=&quot;background-color: initial;&quot;&gt;Manage Personal Details&lt;/span&gt;&lt;/div&gt;&lt;/div&gt;" style="ellipse;whiteSpace=wrap;html=1;" vertex="1" parent="1">
          <mxGeometry x="308" y="932" width="212" height="50" as="geometry" />
        </mxCell>
        <mxCell id="RyqakxEzU9vs0X3KJX2c-31" value="&lt;div style=&quot;text-wrap-mode: nowrap;&quot;&gt;&lt;div&gt;&lt;span style=&quot;background-color: initial;&quot;&gt;Mark invoices as paid/unpaid&lt;/span&gt;&lt;/div&gt;&lt;/div&gt;" style="ellipse;whiteSpace=wrap;html=1;" vertex="1" parent="1">
          <mxGeometry x="308" y="862" width="212" height="50" as="geometry" />
        </mxCell>
        <mxCell id="RyqakxEzU9vs0X3KJX2c-32" value="&lt;div style=&quot;text-wrap-mode: nowrap;&quot;&gt;&lt;div&gt;&lt;span style=&quot;background-color: initial;&quot;&gt;Accept Disputes&lt;/span&gt;&lt;/div&gt;&lt;/div&gt;" style="ellipse;whiteSpace=wrap;html=1;" vertex="1" parent="1">
          <mxGeometry x="308" y="652" width="212" height="50" as="geometry" />
        </mxCell>
        <mxCell id="RyqakxEzU9vs0X3KJX2c-33" value="&lt;div style=&quot;text-wrap-mode: nowrap;&quot;&gt;&lt;div&gt;&lt;span style=&quot;background-color: initial;&quot;&gt;Make Dispute request&lt;/span&gt;&lt;/div&gt;&lt;/div&gt;" style="ellipse;whiteSpace=wrap;html=1;" vertex="1" parent="1">
          <mxGeometry x="308" y="580" width="212" height="50" as="geometry" />
        </mxCell>
        <mxCell id="RyqakxEzU9vs0X3KJX2c-34" value="&lt;div style=&quot;text-wrap-mode: nowrap;&quot;&gt;&lt;div&gt;&lt;span style=&quot;background-color: initial;&quot;&gt;View invoice statistics&lt;/span&gt;&lt;/div&gt;&lt;div&gt;&lt;span style=&quot;background-color: initial;&quot;&gt;(total and unpaid)&lt;/span&gt;&lt;/div&gt;&lt;/div&gt;" style="ellipse;whiteSpace=wrap;html=1;" vertex="1" parent="1">
          <mxGeometry x="308" y="792" width="212" height="50" as="geometry" />
        </mxCell>
        <mxCell id="RyqakxEzU9vs0X3KJX2c-35" value="&lt;div style=&quot;text-wrap-mode: nowrap;&quot;&gt;&lt;div&gt;&lt;span style=&quot;background-color: initial;&quot;&gt;Generate Reports&lt;/span&gt;&lt;/div&gt;&lt;/div&gt;" style="ellipse;whiteSpace=wrap;html=1;" vertex="1" parent="1">
          <mxGeometry x="308" y="722" width="212" height="50" as="geometry" />
        </mxCell>
        <mxCell id="RyqakxEzU9vs0X3KJX2c-36" value="&lt;div style=&quot;text-wrap-mode: nowrap;&quot;&gt;&lt;div&gt;&lt;span style=&quot;background-color: initial;&quot;&gt;View Payment History&amp;nbsp;&lt;/span&gt;&lt;/div&gt;&lt;/div&gt;" style="ellipse;whiteSpace=wrap;html=1;" vertex="1" parent="1">
          <mxGeometry x="308" y="510" width="212" height="50" as="geometry" />
        </mxCell>
        <mxCell id="RyqakxEzU9vs0X3KJX2c-38" value="&lt;div style=&quot;text-wrap-mode: nowrap;&quot;&gt;&lt;div&gt;&lt;span style=&quot;background-color: initial;&quot;&gt;Attach Document to invoices&lt;/span&gt;&lt;/div&gt;&lt;/div&gt;" style="ellipse;whiteSpace=wrap;html=1;" vertex="1" parent="1">
          <mxGeometry x="308" y="372" width="212" height="50" as="geometry" />
        </mxCell>
        <mxCell id="RyqakxEzU9vs0X3KJX2c-39" value="&lt;div style=&quot;text-wrap-mode: nowrap;&quot;&gt;&lt;div&gt;&lt;span style=&quot;background-color: initial;&quot;&gt;Send Invoice Via Email&lt;/span&gt;&lt;/div&gt;&lt;/div&gt;" style="ellipse;whiteSpace=wrap;html=1;" vertex="1" parent="1">
          <mxGeometry x="308" y="302" width="212" height="50" as="geometry" />
        </mxCell>
        <mxCell id="RyqakxEzU9vs0X3KJX2c-41" value="&lt;font style=&quot;font-size: 21px;&quot;&gt;&lt;b&gt;USE CASE DIAGRAM&lt;/b&gt;&lt;/font&gt;" style="text;html=1;align=center;verticalAlign=middle;resizable=0;points=[];autosize=1;strokeColor=none;fillColor=none;" vertex="1" parent="1">
          <mxGeometry x="293" y="22" width="240" height="40" as="geometry" />
        </mxCell>
        <mxCell id="RyqakxEzU9vs0X3KJX2c-42" value="" style="ellipse;whiteSpace=wrap;html=1;aspect=fixed;fillColor=#080808;" vertex="1" parent="1">
          <mxGeometry x="712" y="920" width="20" height="20" as="geometry" />
        </mxCell>
        <mxCell id="RyqakxEzU9vs0X3KJX2c-44" value="" style="endArrow=none;html=1;rounded=0;entryX=0.5;entryY=1;entryDx=0;entryDy=0;" edge="1" parent="1" target="RyqakxEzU9vs0X3KJX2c-42">
          <mxGeometry width="50" height="50" relative="1" as="geometry">
            <mxPoint x="722" y="970" as="sourcePoint" />
            <mxPoint x="742" y="960" as="targetPoint" />
          </mxGeometry>
        </mxCell>
        <mxCell id="RyqakxEzU9vs0X3KJX2c-45" value="" style="endArrow=none;html=1;rounded=0;" edge="1" parent="1">
          <mxGeometry width="50" height="50" relative="1" as="geometry">
            <mxPoint x="702" y="1000" as="sourcePoint" />
            <mxPoint x="722" y="970" as="targetPoint" />
          </mxGeometry>
        </mxCell>
        <mxCell id="RyqakxEzU9vs0X3KJX2c-46" value="" style="endArrow=none;html=1;rounded=0;" edge="1" parent="1">
          <mxGeometry width="50" height="50" relative="1" as="geometry">
            <mxPoint x="700" y="950" as="sourcePoint" />
            <mxPoint x="742" y="950" as="targetPoint" />
          </mxGeometry>
        </mxCell>
        <mxCell id="RyqakxEzU9vs0X3KJX2c-47" value="" style="endArrow=none;html=1;rounded=0;" edge="1" parent="1">
          <mxGeometry width="50" height="50" relative="1" as="geometry">
            <mxPoint x="742" y="1000" as="sourcePoint" />
            <mxPoint x="722" y="970" as="targetPoint" />
          </mxGeometry>
        </mxCell>
        <mxCell id="RyqakxEzU9vs0X3KJX2c-58" value="" style="ellipse;whiteSpace=wrap;html=1;aspect=fixed;fillColor=#080808;" vertex="1" parent="1">
          <mxGeometry x="711" y="370" width="20" height="20" as="geometry" />
        </mxCell>
        <mxCell id="RyqakxEzU9vs0X3KJX2c-59" value="" style="endArrow=none;html=1;rounded=0;entryX=0.5;entryY=1;entryDx=0;entryDy=0;" edge="1" parent="1" target="RyqakxEzU9vs0X3KJX2c-58">
          <mxGeometry width="50" height="50" relative="1" as="geometry">
            <mxPoint x="721" y="420" as="sourcePoint" />
            <mxPoint x="741" y="410" as="targetPoint" />
          </mxGeometry>
        </mxCell>
        <mxCell id="RyqakxEzU9vs0X3KJX2c-60" value="" style="endArrow=none;html=1;rounded=0;" edge="1" parent="1">
          <mxGeometry width="50" height="50" relative="1" as="geometry">
            <mxPoint x="701" y="450" as="sourcePoint" />
            <mxPoint x="721" y="420" as="targetPoint" />
          </mxGeometry>
        </mxCell>
        <mxCell id="RyqakxEzU9vs0X3KJX2c-61" value="" style="endArrow=none;html=1;rounded=0;" edge="1" parent="1">
          <mxGeometry width="50" height="50" relative="1" as="geometry">
            <mxPoint x="700" y="400" as="sourcePoint" />
            <mxPoint x="741" y="400" as="targetPoint" />
          </mxGeometry>
        </mxCell>
        <mxCell id="RyqakxEzU9vs0X3KJX2c-62" value="" style="endArrow=none;html=1;rounded=0;" edge="1" parent="1">
          <mxGeometry width="50" height="50" relative="1" as="geometry">
            <mxPoint x="741" y="450" as="sourcePoint" />
            <mxPoint x="721" y="420" as="targetPoint" />
          </mxGeometry>
        </mxCell>
        <mxCell id="RyqakxEzU9vs0X3KJX2c-63" value="" style="ellipse;whiteSpace=wrap;html=1;aspect=fixed;fillColor=#080808;" vertex="1" parent="1">
          <mxGeometry x="90" y="652" width="20" height="20" as="geometry" />
        </mxCell>
        <mxCell id="RyqakxEzU9vs0X3KJX2c-64" value="" style="endArrow=none;html=1;rounded=0;entryX=0.5;entryY=1;entryDx=0;entryDy=0;" edge="1" parent="1" target="RyqakxEzU9vs0X3KJX2c-63">
          <mxGeometry width="50" height="50" relative="1" as="geometry">
            <mxPoint x="100" y="702" as="sourcePoint" />
            <mxPoint x="120" y="692" as="targetPoint" />
          </mxGeometry>
        </mxCell>
        <mxCell id="RyqakxEzU9vs0X3KJX2c-65" value="" style="endArrow=none;html=1;rounded=0;" edge="1" parent="1">
          <mxGeometry width="50" height="50" relative="1" as="geometry">
            <mxPoint x="80" y="732" as="sourcePoint" />
            <mxPoint x="100" y="702" as="targetPoint" />
          </mxGeometry>
        </mxCell>
        <mxCell id="RyqakxEzU9vs0X3KJX2c-66" value="" style="endArrow=none;html=1;rounded=0;" edge="1" parent="1">
          <mxGeometry width="50" height="50" relative="1" as="geometry">
            <mxPoint x="80" y="682" as="sourcePoint" />
            <mxPoint x="120" y="682" as="targetPoint" />
          </mxGeometry>
        </mxCell>
        <mxCell id="RyqakxEzU9vs0X3KJX2c-67" value="" style="endArrow=none;html=1;rounded=0;" edge="1" parent="1">
          <mxGeometry width="50" height="50" relative="1" as="geometry">
            <mxPoint x="120" y="732" as="sourcePoint" />
            <mxPoint x="100" y="702" as="targetPoint" />
          </mxGeometry>
        </mxCell>
        <mxCell id="RyqakxEzU9vs0X3KJX2c-69" value="Organisation" style="text;html=1;align=center;verticalAlign=middle;resizable=0;points=[];autosize=1;strokeColor=none;fillColor=none;" vertex="1" parent="1">
          <mxGeometry x="678" y="998" width="90" height="30" as="geometry" />
        </mxCell>
        <mxCell id="RyqakxEzU9vs0X3KJX2c-71" value="Accountant" style="text;html=1;align=center;verticalAlign=middle;resizable=0;points=[];autosize=1;strokeColor=none;fillColor=none;" vertex="1" parent="1">
          <mxGeometry x="680" y="452" width="80" height="30" as="geometry" />
        </mxCell>
        <mxCell id="RyqakxEzU9vs0X3KJX2c-72" value="Admin" style="text;html=1;align=center;verticalAlign=middle;resizable=0;points=[];autosize=1;strokeColor=none;fillColor=none;" vertex="1" parent="1">
          <mxGeometry x="70" y="732" width="60" height="30" as="geometry" />
        </mxCell>
        <mxCell id="RyqakxEzU9vs0X3KJX2c-75" value="" style="endArrow=none;html=1;rounded=0;entryX=0;entryY=0.5;entryDx=0;entryDy=0;" edge="1" parent="1" target="RyqakxEzU9vs0X3KJX2c-39">
          <mxGeometry width="50" height="50" relative="1" as="geometry">
            <mxPoint x="120" y="682" as="sourcePoint" />
            <mxPoint x="370" y="332" as="targetPoint" />
          </mxGeometry>
        </mxCell>
        <mxCell id="RyqakxEzU9vs0X3KJX2c-76" value="" style="endArrow=none;html=1;rounded=0;entryX=0;entryY=0.5;entryDx=0;entryDy=0;" edge="1" parent="1" target="RyqakxEzU9vs0X3KJX2c-21">
          <mxGeometry width="50" height="50" relative="1" as="geometry">
            <mxPoint x="120" y="682" as="sourcePoint" />
            <mxPoint x="258" y="302" as="targetPoint" />
          </mxGeometry>
        </mxCell>
        <mxCell id="RyqakxEzU9vs0X3KJX2c-82" value="" style="endArrow=none;html=1;rounded=0;entryX=-0.001;entryY=0.518;entryDx=0;entryDy=0;entryPerimeter=0;" edge="1" parent="1" target="RyqakxEzU9vs0X3KJX2c-23">
          <mxGeometry width="50" height="50" relative="1" as="geometry">
            <mxPoint x="120" y="682" as="sourcePoint" />
            <mxPoint x="318" y="337" as="targetPoint" />
          </mxGeometry>
        </mxCell>
        <mxCell id="RyqakxEzU9vs0X3KJX2c-83" value="" style="endArrow=none;html=1;rounded=0;entryX=0;entryY=0.5;entryDx=0;entryDy=0;" edge="1" parent="1" target="RyqakxEzU9vs0X3KJX2c-22">
          <mxGeometry width="50" height="50" relative="1" as="geometry">
            <mxPoint x="120" y="682" as="sourcePoint" />
            <mxPoint x="208" y="277" as="targetPoint" />
          </mxGeometry>
        </mxCell>
        <mxCell id="RyqakxEzU9vs0X3KJX2c-85" value="" style="endArrow=none;html=1;rounded=0;exitX=1;exitY=0.5;exitDx=0;exitDy=0;" edge="1" parent="1" source="RyqakxEzU9vs0X3KJX2c-22">
          <mxGeometry width="50" height="50" relative="1" as="geometry">
            <mxPoint x="620" y="292" as="sourcePoint" />
            <mxPoint x="700" y="400" as="targetPoint" />
          </mxGeometry>
        </mxCell>
        <mxCell id="RyqakxEzU9vs0X3KJX2c-86" value="" style="endArrow=none;html=1;rounded=0;exitX=0.999;exitY=0.479;exitDx=0;exitDy=0;exitPerimeter=0;" edge="1" parent="1" source="RyqakxEzU9vs0X3KJX2c-23">
          <mxGeometry width="50" height="50" relative="1" as="geometry">
            <mxPoint x="519" y="254.5" as="sourcePoint" />
            <mxPoint x="700" y="400" as="targetPoint" />
          </mxGeometry>
        </mxCell>
        <mxCell id="RyqakxEzU9vs0X3KJX2c-87" value="" style="endArrow=none;html=1;rounded=0;exitX=1;exitY=0.5;exitDx=0;exitDy=0;" edge="1" parent="1" source="RyqakxEzU9vs0X3KJX2c-38">
          <mxGeometry width="50" height="50" relative="1" as="geometry">
            <mxPoint x="520" y="402" as="sourcePoint" />
            <mxPoint x="700" y="400" as="targetPoint" />
          </mxGeometry>
        </mxCell>
        <mxCell id="RyqakxEzU9vs0X3KJX2c-88" value="" style="endArrow=none;html=1;rounded=0;exitX=0.999;exitY=0.464;exitDx=0;exitDy=0;exitPerimeter=0;" edge="1" parent="1" source="RyqakxEzU9vs0X3KJX2c-28">
          <mxGeometry width="50" height="50" relative="1" as="geometry">
            <mxPoint x="516" y="464.5" as="sourcePoint" />
            <mxPoint x="700" y="400" as="targetPoint" />
          </mxGeometry>
        </mxCell>
        <mxCell id="RyqakxEzU9vs0X3KJX2c-89" value="" style="endArrow=none;html=1;rounded=0;exitX=1;exitY=0.5;exitDx=0;exitDy=0;" edge="1" parent="1">
          <mxGeometry width="50" height="50" relative="1" as="geometry">
            <mxPoint x="519" y="537" as="sourcePoint" />
            <mxPoint x="700" y="400" as="targetPoint" />
          </mxGeometry>
        </mxCell>
        <mxCell id="RyqakxEzU9vs0X3KJX2c-90" value="" style="endArrow=none;html=1;rounded=0;exitX=1;exitY=0.5;exitDx=0;exitDy=0;" edge="1" parent="1" source="RyqakxEzU9vs0X3KJX2c-36">
          <mxGeometry width="50" height="50" relative="1" as="geometry">
            <mxPoint x="512" y="604.5" as="sourcePoint" />
            <mxPoint x="700" y="400" as="targetPoint" />
          </mxGeometry>
        </mxCell>
        <mxCell id="RyqakxEzU9vs0X3KJX2c-92" value="" style="endArrow=none;html=1;rounded=0;exitX=1;exitY=0.5;exitDx=0;exitDy=0;" edge="1" parent="1" source="RyqakxEzU9vs0X3KJX2c-35">
          <mxGeometry width="50" height="50" relative="1" as="geometry">
            <mxPoint x="511" y="744.5" as="sourcePoint" />
            <mxPoint x="700" y="400" as="targetPoint" />
          </mxGeometry>
        </mxCell>
        <mxCell id="RyqakxEzU9vs0X3KJX2c-93" value="" style="endArrow=none;html=1;rounded=0;exitX=1;exitY=0.5;exitDx=0;exitDy=0;" edge="1" parent="1" source="RyqakxEzU9vs0X3KJX2c-34">
          <mxGeometry width="50" height="50" relative="1" as="geometry">
            <mxPoint x="516" y="814.5" as="sourcePoint" />
            <mxPoint x="700" y="950" as="targetPoint" />
          </mxGeometry>
        </mxCell>
        <mxCell id="RyqakxEzU9vs0X3KJX2c-94" value="" style="endArrow=none;html=1;rounded=0;exitX=1;exitY=0.5;exitDx=0;exitDy=0;" edge="1" parent="1" source="RyqakxEzU9vs0X3KJX2c-33">
          <mxGeometry width="50" height="50" relative="1" as="geometry">
            <mxPoint x="520" y="884.5" as="sourcePoint" />
            <mxPoint x="700" y="950" as="targetPoint" />
          </mxGeometry>
        </mxCell>
        <mxCell id="RyqakxEzU9vs0X3KJX2c-95" value="" style="endArrow=none;html=1;rounded=0;exitX=1;exitY=0.5;exitDx=0;exitDy=0;" edge="1" parent="1" source="RyqakxEzU9vs0X3KJX2c-26">
          <mxGeometry width="50" height="50" relative="1" as="geometry">
            <mxPoint x="512" y="1024.5" as="sourcePoint" />
            <mxPoint x="700" y="950" as="targetPoint" />
          </mxGeometry>
        </mxCell>
        <mxCell id="RyqakxEzU9vs0X3KJX2c-97" value="" style="endArrow=none;html=1;rounded=0;entryX=0;entryY=0.5;entryDx=0;entryDy=0;" edge="1" parent="1" target="RyqakxEzU9vs0X3KJX2c-30">
          <mxGeometry width="50" height="50" relative="1" as="geometry">
            <mxPoint x="120" y="682" as="sourcePoint" />
            <mxPoint x="230" y="857" as="targetPoint" />
          </mxGeometry>
        </mxCell>
        <mxCell id="RyqakxEzU9vs0X3KJX2c-98" value="" style="endArrow=none;html=1;rounded=0;entryX=0;entryY=0.5;entryDx=0;entryDy=0;" edge="1" parent="1" target="RyqakxEzU9vs0X3KJX2c-29">
          <mxGeometry width="50" height="50" relative="1" as="geometry">
            <mxPoint x="120" y="682" as="sourcePoint" />
            <mxPoint x="220" y="959.5" as="targetPoint" />
          </mxGeometry>
        </mxCell>
        <mxCell id="RyqakxEzU9vs0X3KJX2c-99" value="" style="endArrow=none;html=1;rounded=0;entryX=0;entryY=0.5;entryDx=0;entryDy=0;" edge="1" parent="1" target="RyqakxEzU9vs0X3KJX2c-27">
          <mxGeometry width="50" height="50" relative="1" as="geometry">
            <mxPoint x="120" y="682" as="sourcePoint" />
            <mxPoint x="150" y="932" as="targetPoint" />
          </mxGeometry>
        </mxCell>
        <mxCell id="RyqakxEzU9vs0X3KJX2c-100" value="" style="endArrow=none;html=1;rounded=0;entryX=0;entryY=0.5;entryDx=0;entryDy=0;" edge="1" parent="1" target="RyqakxEzU9vs0X3KJX2c-26">
          <mxGeometry width="50" height="50" relative="1" as="geometry">
            <mxPoint x="120" y="682" as="sourcePoint" />
            <mxPoint x="190" y="1017" as="targetPoint" />
          </mxGeometry>
        </mxCell>
        <mxCell id="RyqakxEzU9vs0X3KJX2c-102" value="" style="endArrow=none;html=1;rounded=0;entryX=0;entryY=0.5;entryDx=0;entryDy=0;" edge="1" parent="1" target="RyqakxEzU9vs0X3KJX2c-31">
          <mxGeometry width="50" height="50" relative="1" as="geometry">
            <mxPoint x="120" y="682" as="sourcePoint" />
            <mxPoint x="318" y="1107" as="targetPoint" />
          </mxGeometry>
        </mxCell>
        <mxCell id="RyqakxEzU9vs0X3KJX2c-103" value="" style="endArrow=none;html=1;rounded=0;entryX=0;entryY=0.5;entryDx=0;entryDy=0;" edge="1" parent="1" target="RyqakxEzU9vs0X3KJX2c-32">
          <mxGeometry width="50" height="50" relative="1" as="geometry">
            <mxPoint x="120" y="682" as="sourcePoint" />
            <mxPoint x="318" y="1037" as="targetPoint" />
          </mxGeometry>
        </mxCell>
        <mxCell id="RyqakxEzU9vs0X3KJX2c-105" value="" style="endArrow=none;html=1;rounded=0;entryX=0;entryY=0.5;entryDx=0;entryDy=0;" edge="1" parent="1" target="RyqakxEzU9vs0X3KJX2c-34">
          <mxGeometry width="50" height="50" relative="1" as="geometry">
            <mxPoint x="120" y="682" as="sourcePoint" />
            <mxPoint x="318" y="897" as="targetPoint" />
          </mxGeometry>
        </mxCell>
        <mxCell id="RyqakxEzU9vs0X3KJX2c-106" value="" style="endArrow=none;html=1;rounded=0;entryX=0;entryY=0.5;entryDx=0;entryDy=0;" edge="1" parent="1" target="RyqakxEzU9vs0X3KJX2c-35">
          <mxGeometry width="50" height="50" relative="1" as="geometry">
            <mxPoint x="120" y="682" as="sourcePoint" />
            <mxPoint x="318" y="827" as="targetPoint" />
          </mxGeometry>
        </mxCell>
        <mxCell id="RyqakxEzU9vs0X3KJX2c-107" value="" style="endArrow=none;html=1;rounded=0;entryX=0;entryY=0.5;entryDx=0;entryDy=0;" edge="1" parent="1">
          <mxGeometry width="50" height="50" relative="1" as="geometry">
            <mxPoint x="120" y="682" as="sourcePoint" />
            <mxPoint x="308" y="677" as="targetPoint" />
          </mxGeometry>
        </mxCell>
        <mxCell id="RyqakxEzU9vs0X3KJX2c-108" value="" style="endArrow=none;html=1;rounded=0;entryX=0;entryY=0.5;entryDx=0;entryDy=0;" edge="1" parent="1" target="RyqakxEzU9vs0X3KJX2c-36">
          <mxGeometry width="50" height="50" relative="1" as="geometry">
            <mxPoint x="120" y="682" as="sourcePoint" />
            <mxPoint x="318" y="687" as="targetPoint" />
          </mxGeometry>
        </mxCell>
        <mxCell id="RyqakxEzU9vs0X3KJX2c-110" value="" style="endArrow=none;html=1;rounded=0;entryX=-0.002;entryY=0.617;entryDx=0;entryDy=0;entryPerimeter=0;" edge="1" parent="1">
          <mxGeometry width="50" height="50" relative="1" as="geometry">
            <mxPoint x="120" y="682" as="sourcePoint" />
            <mxPoint x="307" y="467.5" as="targetPoint" />
          </mxGeometry>
        </mxCell>
        <mxCell id="RyqakxEzU9vs0X3KJX2c-112" value="" style="endArrow=none;html=1;rounded=0;exitX=1;exitY=0.5;exitDx=0;exitDy=0;" edge="1" parent="1" source="RyqakxEzU9vs0X3KJX2c-31">
          <mxGeometry width="50" height="50" relative="1" as="geometry">
            <mxPoint x="630" y="1080" as="sourcePoint" />
            <mxPoint x="700" y="400" as="targetPoint" />
          </mxGeometry>
        </mxCell>
        <mxCell id="RyqakxEzU9vs0X3KJX2c-114" value="" style="endArrow=none;html=1;rounded=0;exitX=1;exitY=0.5;exitDx=0;exitDy=0;" edge="1" parent="1" source="RyqakxEzU9vs0X3KJX2c-36">
          <mxGeometry width="50" height="50" relative="1" as="geometry">
            <mxPoint x="520" y="610" as="sourcePoint" />
            <mxPoint x="700" y="950" as="targetPoint" />
          </mxGeometry>
        </mxCell>
        <mxCell id="RyqakxEzU9vs0X3KJX2c-115" value="" style="endArrow=none;html=1;rounded=0;entryX=0;entryY=0.5;entryDx=0;entryDy=0;" edge="1" parent="1" target="RyqakxEzU9vs0X3KJX2c-38">
          <mxGeometry width="50" height="50" relative="1" as="geometry">
            <mxPoint x="120" y="680" as="sourcePoint" />
            <mxPoint x="317" y="477.5" as="targetPoint" />
          </mxGeometry>
        </mxCell>
        <mxCell id="RyqakxEzU9vs0X3KJX2c-118" value="" style="endArrow=none;html=1;rounded=0;exitX=1;exitY=0.5;exitDx=0;exitDy=0;" edge="1" parent="1" source="RyqakxEzU9vs0X3KJX2c-23">
          <mxGeometry width="50" height="50" relative="1" as="geometry">
            <mxPoint x="519" y="254.25" as="sourcePoint" />
            <mxPoint x="700" y="950" as="targetPoint" />
          </mxGeometry>
        </mxCell>
        <mxCell id="RyqakxEzU9vs0X3KJX2c-119" value="" style="endArrow=none;html=1;rounded=0;exitX=1;exitY=0.5;exitDx=0;exitDy=0;" edge="1" parent="1" source="RyqakxEzU9vs0X3KJX2c-22">
          <mxGeometry width="50" height="50" relative="1" as="geometry">
            <mxPoint x="520" y="190" as="sourcePoint" />
            <mxPoint x="700" y="950" as="targetPoint" />
          </mxGeometry>
        </mxCell>
        <mxCell id="RyqakxEzU9vs0X3KJX2c-120" value="" style="endArrow=none;html=1;rounded=0;" edge="1" parent="1">
          <mxGeometry width="50" height="50" relative="1" as="geometry">
            <mxPoint x="520" y="190" as="sourcePoint" />
            <mxPoint x="700" y="950" as="targetPoint" />
          </mxGeometry>
        </mxCell>
        <mxCell id="RyqakxEzU9vs0X3KJX2c-121" value="Uers:&lt;div&gt;ADMIN&lt;/div&gt;&lt;div&gt;ORGANISATION&lt;br&gt;ACCOUNTANT&lt;/div&gt;" style="text;html=1;align=center;verticalAlign=middle;resizable=0;points=[];autosize=1;strokeColor=none;fillColor=none;" vertex="1" parent="1">
          <mxGeometry x="45" y="1010" width="110" height="70" as="geometry" />
        </mxCell>
      </root>
    </mxGraphModel>
  </diagram>
</mxfile>
